<svg xmlns="http://www.w3.org/2000/svg" width="1024" height="1024" viewBox="0 0 1024 1024" version="1.1">
	<rect x="0" y="0" width="100%" height="100%" fill="#FEFEFF" />
	<path d="M 620.381 143.910 C 615.591 146.830, 615 150.052, 615 173.249 L 615 194.200 618.400 197.600 L 621.800 201 665.341 201 C 696.260 201, 709.082 201.323, 709.570 202.114 C 710.641 203.846, 662.849 251.387, 557.500 353.388 C 539.900 370.429, 513.796 395.875, 499.490 409.936 C 485.185 423.996, 461.335 447.413, 446.490 461.974 C 431.646 476.534, 405.945 501.847, 389.377 518.224 C 353.791 553.399, 356.651 552.853, 340.491 527.561 C 253.480 391.377, 399.984 213.675, 547.999 275.864 L 555.363 278.958 561.431 273.301 C 578.462 257.424, 596.005 239.456, 595.574 238.333 C 594.013 234.265, 558.495 220.146, 539.500 216.043 C 327.552 170.258, 175.833 407.393, 307.922 577.997 C 321.378 595.377, 353.849 625.421, 356.449 622.896 C 366.070 613.553, 401.663 578.515, 431.500 549.015 C 452.950 527.808, 498.625 482.812, 533 449.024 C 567.375 415.237, 604.398 378.796, 615.274 368.046 C 638.287 345.299, 636.060 346.726, 640.034 352.185 C 661.839 382.144, 669.230 435.695, 657.863 481.372 C 635.939 569.471, 553.183 624.731, 461.500 612.493 L 450.500 611.024 429.540 631.975 L 408.580 652.926 412.540 654.584 C 420.103 657.750, 435.563 662.026, 446.882 664.081 C 464.573 667.294, 463.206 664.397, 463.374 699.032 C 463.499 724.734, 463.482 724.957, 461.223 727.219 L 458.946 729.500 408.223 730 C 344.087 730.632, 350 727.687, 350 759 C 350 790.870, 344.282 788, 407.768 788 L 458.091 788 460.545 790.455 L 463 792.909 463 823.487 C 463 866.928, 461.011 864.245, 492.888 863.805 L 514.959 863.500 517.729 860.729 L 520.500 857.958 521 824.889 L 521.500 791.820 523.861 789.910 C 526.117 788.085, 528.524 788, 577.976 788 C 643.350 788, 637.301 791.180, 636.807 757.070 L 636.500 735.832 633.234 732.916 L 629.968 730 577.939 730 L 525.909 730 523.455 727.545 L 521 725.091 521 697.118 L 521 669.145 523.459 667.211 C 524.869 666.102, 532.314 663.744, 540.923 661.682 C 692.021 625.476, 766.803 454.776, 688.879 323.951 C 685.096 317.599, 682 311.480, 682 310.353 C 682 308.475, 747.683 244, 749.598 244 C 749.982 244, 750.059 262.602, 749.770 285.338 C 749.059 341.247, 746.767 337.252, 779.286 336.803 L 801.168 336.500 803.967 333.365 L 806.767 330.229 807.528 303.365 C 808.808 258.142, 807.443 151.758, 805.536 148.069 C 802.247 141.708, 806.795 142, 710.800 142.004 C 626.761 142.007, 623.383 142.079, 620.381 143.910" stroke="none" fill="#222427" fill-rule="evenodd"/>
</svg>